<?xml version="1.0" encoding="UTF-8" standalone="no"?>
<!DOCTYPE svg PUBLIC "-//W3C//DTD SVG 1.1//EN"
 "http://www.w3.org/Graphics/SVG/1.1/DTD/svg11.dtd">
<!-- Generated by graphviz version 2.38.0 (20140413.2041)
 -->
<!-- Title: sdg Pages: 1 -->
<svg width="557pt" height="770pt"
 viewBox="0.00 0.00 557.41 770.00" xmlns="http://www.w3.org/2000/svg" xmlns:xlink="http://www.w3.org/1999/xlink">
<g id="graph0" class="graph" transform="scale(0.518519 0.518519) rotate(0) translate(4 1481)">
<title>sdg</title>
<polygon fill="white" stroke="none" points="-4,4 -4,-1481 1071,-1481 1071,4 -4,4"/>
<!-- Modulus -->
<g id="node1" class="node"><title>Modulus</title>
<g id="a_node1"><a xlink:title="const:&#10;Modulus for D&#45;H operations">
<polygon fill="none" stroke="blue" stroke-width="2" points="220.319,-1477.2 40.3193,-1477.2 40.3193,-1434.2 220.319,-1434.2 220.319,-1477.2"/>
<text text-anchor="start" x="86.3193" y="-1453" font-family="Times,serif" font-weight="bold" font-size="14.00">const:</text>
<text text-anchor="start" x="121.319" y="-1453" font-family="Times,serif" font-size="14.00"> Modulus</text>
</a>
</g>
</g>
<!-- Branch modulus -->
<g id="node2" class="node"><title>Branch modulus</title>
<g id="a_node2"><a xlink:title="branch:&#10;Branch modulus">
<polygon fill="none" stroke="blue" stroke-width="2" points="373.875,-1109.83 193.875,-1109.83 193.875,-1066.83 373.875,-1066.83 373.875,-1109.83"/>
<text text-anchor="start" x="213.875" y="-1085.63" font-family="Times,serif" font-weight="bold" font-size="14.00">branch:</text>
<text text-anchor="start" x="259.875" y="-1085.63" font-family="Times,serif" font-size="14.00"> Branch modulus</text>
</a>
</g>
</g>
<!-- Modulus&#45;&gt;Branch modulus -->
<g id="edge9" class="edge"><title>Modulus&#45;&gt;Branch modulus</title>
<g id="a_edge9"><a xlink:title="Modulus:const ==&gt; Branch modulus:data">
<path fill="none" stroke="blue" stroke-width="2" d="M207.097,-1434.09C207.097,-1434.09 207.097,-1120.14 207.097,-1120.14"/>
<polygon fill="blue" stroke="blue" stroke-width="2" points="207.097,-1110.14 211.597,-1120.14 207.597,-1115.14 207.597,-1120.14 207.097,-1120.14 206.597,-1120.14 206.597,-1115.14 202.597,-1120.14 207.097,-1110.14 207.097,-1110.14"/>
</a>
</g>
<text text-anchor="middle" x="198.597" y="-1112.54" font-family="Sans-Serif" font-size="7.00">data</text>
<text text-anchor="middle" x="196.597" y="-1428.49" font-family="Sans-Serif" font-size="7.00">const</text>
</g>
<!-- Calculate sec -->
<g id="node4" class="node"><title>Calculate sec</title>
<g id="a_node4"><a xlink:title="dhsec:&#10;Calculate initiator secret value">
<polygon fill="none" stroke="purple" stroke-width="2" points="313.388,-715.955 133.388,-715.955 133.388,-672.955 313.388,-672.955 313.388,-715.955"/>
<text text-anchor="start" x="166.888" y="-691.755" font-family="Times,serif" font-weight="bold" font-size="14.00">dhsec:</text>
<text text-anchor="start" x="203.888" y="-691.755" font-family="Times,serif" font-size="14.00"> Calculate sec</text>
</a>
</g>
</g>
<!-- Branch modulus&#45;&gt;Calculate sec -->
<g id="edge10" class="edge"><title>Branch modulus&#45;&gt;Calculate sec</title>
<g id="a_edge10"><a xlink:title="Branch modulus:modulus#1 ==&gt; Calculate sec:modulus">
<path fill="none" stroke="blue" stroke-width="2" d="M295.51,-1066.59C295.51,-1066.59 295.51,-726.125 295.51,-726.125"/>
<polygon fill="blue" stroke="blue" stroke-width="2" points="295.51,-716.125 300.011,-726.125 296.011,-721.125 296.011,-726.125 295.511,-726.125 295.011,-726.125 295.011,-721.125 291.011,-726.125 295.51,-716.125 295.51,-716.125"/>
</a>
</g>
<text text-anchor="middle" x="280.01" y="-718.525" font-family="Sans-Serif" font-size="7.00">modulus</text>
<text text-anchor="middle" x="274.51" y="-1060.99" font-family="Sans-Serif" font-size="7.00">modulus#1</text>
</g>
<!-- Calculate pub -->
<g id="node6" class="node"><title>Calculate pub</title>
<g id="a_node6"><a xlink:title="dhpub:&#10;Calculate initiator public value">
<polygon fill="none" stroke="purple" stroke-width="2" points="598.918,-768.29 418.918,-768.29 418.918,-725.29 598.918,-725.29 598.918,-768.29"/>
<text text-anchor="start" x="447.918" y="-744.09" font-family="Times,serif" font-weight="bold" font-size="14.00">dhpub:</text>
<text text-anchor="start" x="490.918" y="-744.09" font-family="Times,serif" font-size="14.00"> Calculate pub</text>
</a>
</g>
</g>
<!-- Branch modulus&#45;&gt;Calculate pub -->
<g id="edge13" class="edge"><title>Branch modulus&#45;&gt;Calculate pub</title>
<g id="a_edge13"><a xlink:title="Branch modulus:modulus#1 ==&gt; Calculate pub:modulus">
<path fill="none" stroke="blue" stroke-width="2" d="M358.121,-1066.73C358.121,-994.071 358.121,-763 358.121,-763 358.121,-763 408.587,-763 408.587,-763"/>
<polygon fill="blue" stroke="blue" stroke-width="2" points="418.587,-763 408.587,-767.5 413.587,-763.5 408.587,-763.5 408.587,-763 408.587,-762.5 413.587,-762.5 408.587,-758.5 418.587,-763 418.587,-763"/>
</a>
</g>
<text text-anchor="middle" x="403.087" y="-765.4" font-family="Sans-Serif" font-size="7.00">modulus</text>
<text text-anchor="middle" x="337.121" y="-1061.13" font-family="Sans-Serif" font-size="7.00">modulus#1</text>
</g>
<!-- Random number generator -->
<g id="node3" class="node"><title>Random number generator</title>
<g id="a_node3"><a xlink:title="rng:&#10;Genderate x for g^x in D&#45;H">
<polygon fill="none" stroke="purple" stroke-width="2" points="331.563,-539.197 139.563,-539.197 139.563,-496.197 331.563,-496.197 331.563,-539.197"/>
<text text-anchor="start" x="147.563" y="-514.997" font-family="Times,serif" font-weight="bold" font-size="14.00">rng:</text>
<text text-anchor="start" x="172.563" y="-514.997" font-family="Times,serif" font-size="14.00"> Random number generator</text>
</a>
</g>
</g>
<!-- Branch sec -->
<g id="node5" class="node"><title>Branch sec</title>
<g id="a_node5"><a xlink:title="branch:&#10;Branch secret of initiator">
<polygon fill="none" stroke="purple" stroke-width="2" points="312.352,-623.72 132.352,-623.72 132.352,-580.72 312.352,-580.72 312.352,-623.72"/>
<text text-anchor="start" x="167.352" y="-599.52" font-family="Times,serif" font-weight="bold" font-size="14.00">branch:</text>
<text text-anchor="start" x="213.352" y="-599.52" font-family="Times,serif" font-size="14.00"> Branch sec</text>
</a>
</g>
</g>
<!-- Random number generator&#45;&gt;Branch sec -->
<g id="edge3" class="edge"><title>Random number generator&#45;&gt;Branch sec</title>
<g id="a_edge3"><a xlink:title="Random number generator:data ==&gt; Branch sec:data">
<path fill="none" stroke="purple" stroke-width="2" d="M225.958,-539.463C225.958,-539.463 225.958,-570.527 225.958,-570.527"/>
<polygon fill="purple" stroke="purple" stroke-width="2" points="225.958,-580.527 221.458,-570.526 225.458,-575.527 225.458,-570.527 225.958,-570.527 226.458,-570.527 226.458,-575.527 230.458,-570.527 225.958,-580.527 225.958,-580.527"/>
</a>
</g>
<text text-anchor="middle" x="217.458" y="-574.927" font-family="Sans-Serif" font-size="7.00">data</text>
<text text-anchor="middle" x="217.458" y="-541.863" font-family="Sans-Serif" font-size="7.00">data</text>
</g>
<!-- Keystore -->
<g id="node14" class="node"><title>Keystore</title>
<g id="a_node14"><a xlink:title="env:&#10;Output result">
<polygon fill="none" stroke="red" stroke-width="2" points="106.572,-774.173 196.572,-759.317 286.572,-774.173 286.488,-798.211 106.656,-798.211 106.572,-774.173"/>
<text text-anchor="start" x="157.572" y="-778.117" font-family="Times,serif" font-weight="bold" font-size="14.00">env:</text>
<text text-anchor="start" x="182.572" y="-778.117" font-family="Times,serif" font-size="14.00"> Keystore</text>
</a>
</g>
</g>
<!-- Calculate sec&#45;&gt;Keystore -->
<g id="edge11" class="edge"><title>Calculate sec&#45;&gt;Keystore</title>
<g id="a_edge11"><a xlink:title="Calculate sec:ssec ==&gt; Keystore:data">
<path fill="none" stroke="red" stroke-width="2" d="M209.98,-716.248C209.98,-716.248 209.98,-751.388 209.98,-751.388"/>
<polygon fill="red" stroke="red" stroke-width="2" points="209.98,-761.388 205.48,-751.388 209.48,-756.388 209.48,-751.388 209.98,-751.388 210.48,-751.388 210.48,-756.388 214.48,-751.388 209.98,-761.388 209.98,-761.388"/>
</a>
</g>
<text text-anchor="middle" x="201.48" y="-755.788" font-family="Sans-Serif" font-size="7.00">data</text>
<text text-anchor="middle" x="201.48" y="-718.648" font-family="Sans-Serif" font-size="7.00">ssec</text>
</g>
<!-- Branch sec&#45;&gt;Calculate sec -->
<g id="edge4" class="edge"><title>Branch sec&#45;&gt;Calculate sec</title>
<g id="a_edge4"><a xlink:title="Branch sec:data#2 ==&gt; Calculate sec:psec">
<path fill="none" stroke="purple" stroke-width="2" d="M222.87,-624.078C222.87,-624.078 222.87,-662.753 222.87,-662.753"/>
<polygon fill="purple" stroke="purple" stroke-width="2" points="222.87,-672.753 218.37,-662.753 222.37,-667.753 222.37,-662.753 222.87,-662.753 223.37,-662.753 223.37,-667.753 227.37,-662.753 222.87,-672.753 222.87,-672.753"/>
</a>
</g>
<text text-anchor="middle" x="213.87" y="-667.153" font-family="Sans-Serif" font-size="7.00">psec</text>
<text text-anchor="middle" x="208.87" y="-626.478" font-family="Sans-Serif" font-size="7.00">data#2</text>
</g>
<!-- Branch sec&#45;&gt;Calculate pub -->
<g id="edge6" class="edge"><title>Branch sec&#45;&gt;Calculate pub</title>
<g id="a_edge6"><a xlink:title="Branch sec:data#1 ==&gt; Calculate pub:psec">
<path fill="none" stroke="purple" stroke-width="2" d="M312.548,-602C375.428,-602 448.102,-602 448.102,-602 448.102,-602 448.102,-715.114 448.102,-715.114"/>
<polygon fill="purple" stroke="purple" stroke-width="2" points="448.102,-725.114 443.602,-715.114 447.602,-720.114 447.602,-715.114 448.102,-715.114 448.602,-715.114 448.602,-720.114 452.602,-715.114 448.102,-725.114 448.102,-725.114"/>
</a>
</g>
<text text-anchor="middle" x="439.102" y="-719.514" font-family="Sans-Serif" font-size="7.00">psec</text>
<text text-anchor="middle" x="326.548" y="-604.4" font-family="Sans-Serif" font-size="7.00">data#1</text>
</g>
<!-- Serialize pub -->
<g id="node8" class="node"><title>Serialize pub</title>
<g id="a_node8"><a xlink:title="xform:&#10;Serialize pub value before sending">
<polygon fill="none" stroke="black" stroke-width="2" points="657.287,-680.362 477.287,-680.362 477.287,-637.362 657.287,-637.362 657.287,-680.362"/>
<text text-anchor="start" x="508.787" y="-656.162" font-family="Times,serif" font-weight="bold" font-size="14.00">xform:</text>
<text text-anchor="start" x="549.787" y="-656.162" font-family="Times,serif" font-size="14.00"> Serialize pub</text>
</a>
</g>
</g>
<!-- Calculate pub&#45;&gt;Serialize pub -->
<g id="edge12" class="edge"><title>Calculate pub&#45;&gt;Serialize pub</title>
<g id="a_edge12"><a xlink:title="Calculate pub:pub ==&gt; Serialize pub:data">
<path fill="none" stroke="black" stroke-width="2" d="M538.102,-725.055C538.102,-725.055 538.102,-690.652 538.102,-690.652"/>
<polygon fill="black" stroke="black" stroke-width="2" points="538.102,-680.652 542.602,-690.652 538.602,-685.652 538.602,-690.652 538.102,-690.652 537.602,-690.652 537.602,-685.652 533.602,-690.652 538.102,-680.652 538.102,-680.652"/>
</a>
</g>
<text text-anchor="middle" x="529.602" y="-683.052" font-family="Sans-Serif" font-size="7.00">data</text>
<text text-anchor="middle" x="531.102" y="-719.455" font-family="Sans-Serif" font-size="7.00">pub</text>
</g>
<!-- Network -->
<g id="node7" class="node"><title>Network</title>
<g id="a_node7"><a xlink:title="env:&#10;Output result">
<polygon fill="none" stroke="black" stroke-width="2" points="388.933,-265.756 478.933,-250.9 568.933,-265.756 568.849,-289.794 389.017,-289.794 388.933,-265.756"/>
<text text-anchor="start" x="440.433" y="-269.7" font-family="Times,serif" font-weight="bold" font-size="14.00">env:</text>
<text text-anchor="start" x="465.433" y="-269.7" font-family="Times,serif" font-size="14.00"> Network</text>
</a>
</g>
</g>
<!-- Unserialize pub -->
<g id="node9" class="node"><title>Unserialize pub</title>
<g id="a_node9"><a xlink:title="xform:&#10;Unserialize pub value after receiving">
<polygon fill="none" stroke="black" stroke-width="2" points="179.526,-336.397 -0.473533,-336.397 -0.473533,-293.397 179.526,-293.397 179.526,-336.397"/>
<text text-anchor="start" x="24.0265" y="-312.197" font-family="Times,serif" font-weight="bold" font-size="14.00">xform:</text>
<text text-anchor="start" x="65.0265" y="-312.197" font-family="Times,serif" font-size="14.00"> Unserialize pub</text>
</a>
</g>
</g>
<!-- Network&#45;&gt;Unserialize pub -->
<g id="edge2" class="edge"><title>Network&#45;&gt;Unserialize pub</title>
<g id="a_edge2"><a xlink:title="Network:remote_pub ==&gt; Unserialize pub:data">
<path fill="none" stroke="black" stroke-width="2" d="M403.925,-290.22C403.925,-301.893 403.925,-315 403.925,-315 403.925,-315 189.621,-315 189.621,-315"/>
<polygon fill="black" stroke="black" stroke-width="2" points="179.621,-315 189.621,-310.5 184.621,-314.5 189.621,-314.5 189.621,-315 189.621,-315.5 184.621,-315.5 189.621,-319.5 179.621,-315 179.621,-315"/>
</a>
</g>
<text text-anchor="middle" x="188.121" y="-317.4" font-family="Sans-Serif" font-size="7.00">data</text>
<text text-anchor="middle" x="381.925" y="-292.62" font-family="Sans-Serif" font-size="7.00">remote_pub</text>
</g>
<!-- Serialize pub&#45;&gt;Network -->
<g id="edge16" class="edge"><title>Serialize pub&#45;&gt;Network</title>
<g id="a_edge16"><a xlink:title="Serialize pub:data ==&gt; Network:data">
<path fill="none" stroke="black" stroke-width="2" d="M523.11,-637.256C523.11,-637.256 523.11,-299.983 523.11,-299.983"/>
<polygon fill="black" stroke="black" stroke-width="2" points="523.11,-289.983 527.61,-299.983 523.61,-294.983 523.61,-299.983 523.11,-299.983 522.61,-299.983 522.61,-294.983 518.61,-299.983 523.11,-289.983 523.11,-289.983"/>
</a>
</g>
<text text-anchor="middle" x="514.61" y="-292.383" font-family="Sans-Serif" font-size="7.00">data</text>
<text text-anchor="middle" x="514.61" y="-631.656" font-family="Sans-Serif" font-size="7.00">data</text>
</g>
<!-- Unserialize pub&#45;&gt;Calculate sec -->
<g id="edge7" class="edge"><title>Unserialize pub&#45;&gt;Calculate sec</title>
<g id="a_edge7"><a xlink:title="Unserialize pub:data ==&gt; Calculate sec:pub">
<path fill="none" stroke="black" stroke-width="2" d="M119.462,-336.641C119.462,-417.195 119.462,-694 119.462,-694 119.462,-694 123.049,-694 123.049,-694"/>
<polygon fill="black" stroke="black" stroke-width="2" points="133.049,-694 123.049,-698.5 128.049,-694.5 123.049,-694.5 123.049,-694 123.049,-693.5 128.049,-693.5 123.049,-689.5 133.049,-694 133.049,-694"/>
</a>
</g>
<text text-anchor="middle" x="126.049" y="-696.4" font-family="Sans-Serif" font-size="7.00">pub</text>
<text text-anchor="middle" x="110.962" y="-339.041" font-family="Sans-Serif" font-size="7.00">data</text>
</g>
<!-- Trigger -->
<g id="node10" class="node"><title>Trigger</title>
<g id="a_node10"><a xlink:title="xform:&#10;Trigger D&#45;H key agreement">
<polygon fill="none" stroke="blue" stroke-width="2" points="342.367,-455.498 162.367,-455.498 162.367,-412.498 342.367,-412.498 342.367,-455.498"/>
<text text-anchor="start" x="209.367" y="-431.298" font-family="Times,serif" font-weight="bold" font-size="14.00">xform:</text>
<text text-anchor="start" x="250.367" y="-431.298" font-family="Times,serif" font-size="14.00"> Trigger</text>
</a>
</g>
</g>
<!-- Trigger&#45;&gt;Random number generator -->
<g id="edge5" class="edge"><title>Trigger&#45;&gt;Random number generator</title>
<g id="a_edge5"><a xlink:title="Trigger:data ==&gt; Random number generator:len">
<path fill="none" stroke="blue" stroke-width="2" d="M246.965,-455.552C246.965,-455.552 246.965,-485.924 246.965,-485.924"/>
<polygon fill="blue" stroke="blue" stroke-width="2" points="246.965,-495.924 242.465,-485.924 246.465,-490.924 246.465,-485.924 246.965,-485.924 247.465,-485.924 247.465,-490.924 251.465,-485.924 246.965,-495.924 246.965,-495.924"/>
</a>
</g>
<text text-anchor="middle" x="240.965" y="-490.324" font-family="Sans-Serif" font-size="7.00">len</text>
<text text-anchor="middle" x="238.465" y="-457.952" font-family="Sans-Serif" font-size="7.00">data</text>
</g>
<!-- Sec length -->
<g id="node11" class="node"><title>Sec length</title>
<g id="a_node11"><a xlink:title="const:&#10;Length of secret key for D&#45;H">
<polygon fill="none" stroke="blue" stroke-width="2" points="306.385,-42.7155 126.385,-42.7155 126.385,0.284533 306.385,0.284533 306.385,-42.7155"/>
<text text-anchor="start" x="168.385" y="-18.5155" font-family="Times,serif" font-weight="bold" font-size="14.00">const:</text>
<text text-anchor="start" x="203.385" y="-18.5155" font-family="Times,serif" font-size="14.00"> Sec length</text>
</a>
</g>
</g>
<!-- Sec length&#45;&gt;Trigger -->
<g id="edge15" class="edge"><title>Sec length&#45;&gt;Trigger</title>
<g id="a_edge15"><a xlink:title="Sec length:const ==&gt; Trigger:len">
<path fill="none" stroke="blue" stroke-width="2" d="M242.956,-42.8272C242.956,-42.8272 242.956,-402.102 242.956,-402.102"/>
<polygon fill="blue" stroke="blue" stroke-width="2" points="242.956,-412.102 238.456,-402.102 242.456,-407.102 242.456,-402.102 242.956,-402.102 243.456,-402.102 243.456,-407.102 247.456,-402.102 242.956,-412.102 242.956,-412.102"/>
</a>
</g>
<text text-anchor="middle" x="236.956" y="-406.502" font-family="Sans-Serif" font-size="7.00">len</text>
<text text-anchor="middle" x="232.456" y="-45.2272" font-family="Sans-Serif" font-size="7.00">const</text>
</g>
<!-- Branch generator -->
<g id="node12" class="node"><title>Branch generator</title>
<g id="a_node12"><a xlink:title="branch:&#10;Branch generator">
<polygon fill="none" stroke="blue" stroke-width="2" points="700.292,-852.346 520.292,-852.346 520.292,-809.346 700.292,-809.346 700.292,-852.346"/>
<text text-anchor="start" x="538.292" y="-828.146" font-family="Times,serif" font-weight="bold" font-size="14.00">branch:</text>
<text text-anchor="start" x="584.292" y="-828.146" font-family="Times,serif" font-size="14.00"> Branch generator</text>
</a>
</g>
</g>
<!-- Branch generator&#45;&gt;Calculate sec -->
<g id="edge1" class="edge"><title>Branch generator&#45;&gt;Calculate sec</title>
<g id="a_edge1"><a xlink:title="Branch generator:generator#2 ==&gt; Calculate sec:generator">
<path fill="none" stroke="blue" stroke-width="2" d="M520.183,-830C429.967,-830 304.449,-830 304.449,-830 304.449,-830 304.449,-726.232 304.449,-726.232"/>
<polygon fill="blue" stroke="blue" stroke-width="2" points="304.449,-716.232 308.949,-726.232 304.949,-721.232 304.949,-726.232 304.449,-726.232 303.949,-726.232 303.949,-721.232 299.949,-726.232 304.449,-716.232 304.449,-716.232"/>
</a>
</g>
<text text-anchor="middle" x="322.949" y="-718.632" font-family="Sans-Serif" font-size="7.00">generator</text>
<text text-anchor="middle" x="496.683" y="-832.4" font-family="Sans-Serif" font-size="7.00">generator#2</text>
</g>
<!-- Branch generator&#45;&gt;Calculate pub -->
<g id="edge8" class="edge"><title>Branch generator&#45;&gt;Calculate pub</title>
<g id="a_edge8"><a xlink:title="Branch generator:generator#1 ==&gt; Calculate pub:generator">
<path fill="none" stroke="blue" stroke-width="2" d="M559.605,-809.2C559.605,-809.2 559.605,-778.363 559.605,-778.363"/>
<polygon fill="blue" stroke="blue" stroke-width="2" points="559.605,-768.363 564.105,-778.363 560.105,-773.363 560.105,-778.363 559.605,-778.363 559.105,-778.363 559.105,-773.363 555.105,-778.364 559.605,-768.363 559.605,-768.363"/>
</a>
</g>
<text text-anchor="middle" x="541.105" y="-770.763" font-family="Sans-Serif" font-size="7.00">generator</text>
<text text-anchor="middle" x="536.105" y="-803.6" font-family="Sans-Serif" font-size="7.00">generator#1</text>
</g>
<!-- Generator -->
<g id="node13" class="node"><title>Generator</title>
<g id="a_node13"><a xlink:title="const:&#10;Generator for D&#45;H operations">
<polygon fill="none" stroke="blue" stroke-width="2" points="1066.88,-1027.84 886.883,-1027.84 886.883,-984.845 1066.88,-984.845 1066.88,-1027.84"/>
<text text-anchor="start" x="930.383" y="-1003.64" font-family="Times,serif" font-weight="bold" font-size="14.00">const:</text>
<text text-anchor="start" x="965.383" y="-1003.64" font-family="Times,serif" font-size="14.00"> Generator</text>
</a>
</g>
</g>
<!-- Generator&#45;&gt;Branch generator -->
<g id="edge14" class="edge"><title>Generator&#45;&gt;Branch generator</title>
<g id="a_edge14"><a xlink:title="Generator:const ==&gt; Branch generator:data">
<path fill="none" stroke="blue" stroke-width="2" d="M886.735,-1006C778.191,-1006 610.292,-1006 610.292,-1006 610.292,-1006 610.292,-862.675 610.292,-862.675"/>
<polygon fill="blue" stroke="blue" stroke-width="2" points="610.292,-852.675 614.792,-862.675 610.792,-857.675 610.792,-862.675 610.292,-862.675 609.792,-862.676 609.792,-857.676 605.792,-862.676 610.292,-852.675 610.292,-852.675"/>
</a>
</g>
<text text-anchor="middle" x="601.792" y="-855.075" font-family="Sans-Serif" font-size="7.00">data</text>
<text text-anchor="middle" x="876.235" y="-1008.4" font-family="Sans-Serif" font-size="7.00">const</text>
</g>
</g>
</svg>
