<?xml version="1.0" encoding="UTF-8" standalone="no"?>
<!DOCTYPE svg PUBLIC "-//W3C//DTD SVG 1.1//EN"
 "http://www.w3.org/Graphics/SVG/1.1/DTD/svg11.dtd">
<!-- Generated by graphviz version 2.38.0 (20140413.2041)
 -->
<!-- Title: sdg Pages: 1 -->
<svg width="1123pt" height="564pt"
 viewBox="0.00 0.00 1123.00 563.65" xmlns="http://www.w3.org/2000/svg" xmlns:xlink="http://www.w3.org/1999/xlink">
<g id="graph0" class="graph" transform="scale(0.536294 0.536294) rotate(0) translate(4 1047)">
<title>sdg</title>
<polygon fill="white" stroke="none" points="-4,4 -4,-1047 2090,-1047 2090,4 -4,4"/>
<g id="clust1" class="cluster"><title>cluster_2</title>
<polygon fill="#cccccc" stroke="black" stroke-width="2" points="0.152584,0.296929 0.152584,-151.703 364.153,-151.703 364.153,0.296929 0.152584,0.296929"/>
<text text-anchor="middle" x="182.153" y="-136.503" font-family="Times,serif" font-size="14.00">partition 2</text>
</g>
<g id="clust2" class="cluster"><title>cluster_3</title>
<polygon fill="#cccccc" stroke="black" stroke-width="2" points="553.525,-149.347 553.525,-782.347 1645.52,-782.347 1645.52,-149.347 553.525,-149.347"/>
<text text-anchor="middle" x="1099.52" y="-767.147" font-family="Times,serif" font-size="14.00">partition 3</text>
</g>
<g id="clust3" class="cluster"><title>cluster_4</title>
<polygon fill="#cccccc" stroke="black" stroke-width="2" points="951.525,-27.0885 951.525,-109.088 1147.52,-109.088 1147.52,-27.0885 951.525,-27.0885"/>
<text text-anchor="middle" x="1049.52" y="-93.8885" font-family="Times,serif" font-size="14.00">partition 4</text>
</g>
<g id="clust4" class="cluster"><title>cluster_1</title>
<polygon fill="#cccccc" stroke="black" stroke-width="2" points="1090.9,-822.848 1090.9,-1042.85 1571.9,-1042.85 1571.9,-822.848 1090.9,-822.848"/>
<text text-anchor="middle" x="1331.4" y="-1027.65" font-family="Times,serif" font-size="14.00">partition 1</text>
</g>
<g id="clust5" class="cluster"><title>cluster_5</title>
<polygon fill="#cccccc" stroke="black" stroke-width="2" points="1747.47,-150.793 1747.47,-298.793 2086.47,-298.793 2086.47,-150.793 1747.47,-150.793"/>
<text text-anchor="middle" x="1916.97" y="-283.593" font-family="Times,serif" font-size="14.00">partition 5</text>
</g>
<g id="clust6" class="cluster"><title>cluster_6</title>
<polygon fill="#cccccc" stroke="black" stroke-width="2" points="414.444,-823.025 414.444,-970.025 727.444,-970.025 727.444,-823.025 414.444,-823.025"/>
<text text-anchor="middle" x="570.944" y="-954.825" font-family="Times,serif" font-size="14.00">partition 6</text>
</g>
<!-- Branch generator -->
<g id="node1" class="node"><title>Branch generator</title>
<g id="a_node1"><a xlink:title="branch:&#10;Branch generator">
<polygon fill="none" stroke="blue" stroke-width="2" points="276.228,-50.3873 96.2284,-50.3873 96.2284,-7.38726 276.228,-7.38726 276.228,-50.3873"/>
<text text-anchor="start" x="114.228" y="-26.1873" font-family="Times,serif" font-weight="bold" font-size="14.00">branch:</text>
<text text-anchor="start" x="160.228" y="-26.1873" font-family="Times,serif" font-size="14.00"> Branch generator</text>
</a>
</g>
</g>
<!-- Calculate pub -->
<g id="node4" class="node"><title>Calculate pub</title>
<g id="a_node4"><a xlink:title="dhpub:&#10;Calculate initiator public value">
<polygon fill="none" stroke="purple" stroke-width="2" points="824.21,-629.643 644.21,-629.643 644.21,-586.643 824.21,-586.643 824.21,-629.643"/>
<text text-anchor="start" x="673.21" y="-605.443" font-family="Times,serif" font-weight="bold" font-size="14.00">dhpub:</text>
<text text-anchor="start" x="716.21" y="-605.443" font-family="Times,serif" font-size="14.00"> Calculate pub</text>
</a>
</g>
</g>
<!-- Branch generator&#45;&gt;Calculate pub -->
<g id="edge16" class="edge"><title>Branch generator&#45;&gt;Calculate pub</title>
<g id="a_edge16"><a xlink:title="Branch generator:generator#1 ==&gt; Calculate pub:generator">
<path fill="none" stroke="blue" stroke-width="2" d="M276.409,-42C431.961,-42 734.21,-42 734.21,-42 734.21,-42 734.21,-576.641 734.21,-576.641"/>
<polygon fill="blue" stroke="blue" stroke-width="2" points="734.21,-586.641 729.711,-576.641 733.71,-581.641 733.711,-576.641 734.211,-576.641 734.711,-576.641 734.71,-581.641 738.711,-576.641 734.21,-586.641 734.21,-586.641"/>
</a>
</g>
<text text-anchor="middle" x="715.71" y="-581.041" font-family="Sans-Serif" font-size="7.00">generator</text>
<text text-anchor="middle" x="299.909" y="-44.4" font-family="Sans-Serif" font-size="7.00">generator#1</text>
</g>
<!-- Calculate sec -->
<g id="node6" class="node"><title>Calculate sec</title>
<g id="a_node6"><a xlink:title="dhsec:&#10;Calculate initiator secret value">
<polygon fill="none" stroke="purple" stroke-width="2" points="1309.23,-356.233 1129.23,-356.233 1129.23,-313.233 1309.23,-313.233 1309.23,-356.233"/>
<text text-anchor="start" x="1162.73" y="-332.033" font-family="Times,serif" font-weight="bold" font-size="14.00">dhsec:</text>
<text text-anchor="start" x="1199.73" y="-332.033" font-family="Times,serif" font-size="14.00"> Calculate sec</text>
</a>
</g>
</g>
<!-- Branch generator&#45;&gt;Calculate sec -->
<g id="edge2" class="edge"><title>Branch generator&#45;&gt;Calculate sec</title>
<g id="a_edge2"><a xlink:title="Branch generator:generator#2 ==&gt; Calculate sec:generator">
<path fill="none" stroke="blue" stroke-width="2" d="M276.544,-21C529.125,-21 1224.4,-21 1224.4,-21 1224.4,-21 1224.4,-303.169 1224.4,-303.169"/>
<polygon fill="blue" stroke="blue" stroke-width="2" points="1224.4,-313.169 1219.9,-303.169 1223.9,-308.169 1223.9,-303.169 1224.4,-303.169 1224.9,-303.169 1224.9,-308.169 1228.9,-303.169 1224.4,-313.169 1224.4,-313.169"/>
</a>
</g>
<text text-anchor="middle" x="1205.9" y="-307.569" font-family="Sans-Serif" font-size="7.00">generator</text>
<text text-anchor="middle" x="300.044" y="-23.4" font-family="Sans-Serif" font-size="7.00">generator#2</text>
</g>
<!-- Generator -->
<g id="node2" class="node"><title>Generator</title>
<g id="a_node2"><a xlink:title="const:&#10;Generator for D&#45;H operations">
<polygon fill="none" stroke="blue" stroke-width="2" points="356.391,-120.844 176.391,-120.844 176.391,-77.844 356.391,-77.844 356.391,-120.844"/>
<text text-anchor="start" x="219.891" y="-96.644" font-family="Times,serif" font-weight="bold" font-size="14.00">const:</text>
<text text-anchor="start" x="254.891" y="-96.644" font-family="Times,serif" font-size="14.00"> Generator</text>
</a>
</g>
</g>
<!-- Generator&#45;&gt;Branch generator -->
<g id="edge1" class="edge"><title>Generator&#45;&gt;Branch generator</title>
<g id="a_edge1"><a xlink:title="Generator:const ==&gt; Branch generator:data">
<path fill="none" stroke="blue" stroke-width="2" d="M226.31,-77.8218C226.31,-77.8218 226.31,-60.7639 226.31,-60.7639"/>
<polygon fill="blue" stroke="blue" stroke-width="2" points="226.31,-50.7639 230.81,-60.7638 226.81,-55.7639 226.81,-60.7639 226.31,-60.7639 225.81,-60.7639 225.81,-55.7639 221.81,-60.7639 226.31,-50.7639 226.31,-50.7639"/>
</a>
</g>
<text text-anchor="middle" x="217.81" y="-53.1639" font-family="Sans-Serif" font-size="7.00">data</text>
<text text-anchor="middle" x="215.81" y="-72.2218" font-family="Sans-Serif" font-size="7.00">const</text>
</g>
<!-- Random number generator -->
<g id="node3" class="node"><title>Random number generator</title>
<g id="a_node3"><a xlink:title="rng:&#10;Genderate x for g^x in D&#45;H">
<polygon fill="none" stroke="purple" stroke-width="2" points="1637.52,-240.845 1445.52,-240.845 1445.52,-197.845 1637.52,-197.845 1637.52,-240.845"/>
<text text-anchor="start" x="1453.52" y="-216.645" font-family="Times,serif" font-weight="bold" font-size="14.00">rng:</text>
<text text-anchor="start" x="1478.52" y="-216.645" font-family="Times,serif" font-size="14.00"> Random number generator</text>
</a>
</g>
</g>
<!-- Branch sec -->
<g id="node5" class="node"><title>Branch sec</title>
<g id="a_node5"><a xlink:title="branch:&#10;Branch secret of initiator">
<polygon fill="none" stroke="purple" stroke-width="2" points="1361.76,-572.488 1181.76,-572.488 1181.76,-529.488 1361.76,-529.488 1361.76,-572.488"/>
<text text-anchor="start" x="1216.76" y="-548.288" font-family="Times,serif" font-weight="bold" font-size="14.00">branch:</text>
<text text-anchor="start" x="1262.76" y="-548.288" font-family="Times,serif" font-size="14.00"> Branch sec</text>
</a>
</g>
</g>
<!-- Random number generator&#45;&gt;Branch sec -->
<g id="edge14" class="edge"><title>Random number generator&#45;&gt;Branch sec</title>
<g id="a_edge14"><a xlink:title="Random number generator:data ==&gt; Branch sec:data">
<path fill="none" stroke="purple" stroke-width="2" d="M1445.44,-219C1391.73,-219 1335.5,-219 1335.5,-219 1335.5,-219 1335.5,-519.461 1335.5,-519.461"/>
<polygon fill="purple" stroke="purple" stroke-width="2" points="1335.5,-529.461 1331,-519.461 1335,-524.461 1335,-519.461 1335.5,-519.461 1336,-519.461 1336,-524.461 1340,-519.461 1335.5,-529.461 1335.5,-529.461"/>
</a>
</g>
<text text-anchor="middle" x="1327" y="-523.861" font-family="Sans-Serif" font-size="7.00">data</text>
<text text-anchor="middle" x="1436.94" y="-221.4" font-family="Sans-Serif" font-size="7.00">data</text>
</g>
<!-- Serialize pub -->
<g id="node8" class="node"><title>Serialize pub</title>
<g id="a_node8"><a xlink:title="xform:&#10;Serialize pub value before sending">
<polygon fill="none" stroke="black" stroke-width="2" points="1563.71,-920.249 1383.71,-920.249 1383.71,-877.249 1563.71,-877.249 1563.71,-920.249"/>
<text text-anchor="start" x="1415.21" y="-896.049" font-family="Times,serif" font-weight="bold" font-size="14.00">xform:</text>
<text text-anchor="start" x="1456.21" y="-896.049" font-family="Times,serif" font-size="14.00"> Serialize pub</text>
</a>
</g>
</g>
<!-- Calculate pub&#45;&gt;Serialize pub -->
<g id="edge13" class="edge"><title>Calculate pub&#45;&gt;Serialize pub</title>
<g id="a_edge13"><a xlink:title="Calculate pub:pub ==&gt; Serialize pub:data">
<path fill="none" stroke="black" stroke-width="2" d="M824.211,-615C1009.13,-615 1414.61,-615 1414.61,-615 1414.61,-615 1414.61,-866.955 1414.61,-866.955"/>
<polygon fill="black" stroke="black" stroke-width="2" points="1414.61,-876.955 1410.11,-866.955 1414.11,-871.955 1414.11,-866.955 1414.61,-866.955 1415.11,-866.955 1415.11,-871.955 1419.11,-866.955 1414.61,-876.955 1414.61,-876.955"/>
</a>
</g>
<text text-anchor="middle" x="1406.11" y="-871.355" font-family="Sans-Serif" font-size="7.00">data</text>
<text text-anchor="middle" x="831.211" y="-617.4" font-family="Sans-Serif" font-size="7.00">pub</text>
</g>
<!-- Branch sec&#45;&gt;Calculate pub -->
<g id="edge15" class="edge"><title>Branch sec&#45;&gt;Calculate pub</title>
<g id="a_edge15"><a xlink:title="Branch sec:data#1 ==&gt; Calculate pub:psec">
<path fill="none" stroke="purple" stroke-width="2" d="M1230.52,-572.628C1230.52,-585.758 1230.52,-600 1230.52,-600 1230.52,-600 834.377,-600 834.377,-600"/>
<polygon fill="purple" stroke="purple" stroke-width="2" points="824.377,-600 834.377,-595.5 829.377,-599.5 834.377,-599.5 834.377,-600 834.377,-600.5 829.377,-600.5 834.377,-604.5 824.377,-600 824.377,-600"/>
</a>
</g>
<text text-anchor="middle" x="833.377" y="-602.4" font-family="Sans-Serif" font-size="7.00">psec</text>
<text text-anchor="middle" x="1216.52" y="-575.028" font-family="Sans-Serif" font-size="7.00">data#1</text>
</g>
<!-- Branch sec&#45;&gt;Calculate sec -->
<g id="edge10" class="edge"><title>Branch sec&#45;&gt;Calculate sec</title>
<g id="a_edge10"><a xlink:title="Branch sec:data#2 ==&gt; Calculate sec:psec">
<path fill="none" stroke="purple" stroke-width="2" d="M1245.5,-529.462C1245.5,-529.462 1245.5,-366.493 1245.5,-366.493"/>
<polygon fill="purple" stroke="purple" stroke-width="2" points="1245.5,-356.493 1250,-366.493 1246,-361.493 1246,-366.493 1245.5,-366.493 1245,-366.493 1245,-361.493 1241,-366.493 1245.5,-356.493 1245.5,-356.493"/>
</a>
</g>
<text text-anchor="middle" x="1236.5" y="-358.893" font-family="Sans-Serif" font-size="7.00">psec</text>
<text text-anchor="middle" x="1231.5" y="-523.862" font-family="Sans-Serif" font-size="7.00">data#2</text>
</g>
<!-- Keystore -->
<g id="node7" class="node"><title>Keystore</title>
<g id="a_node7"><a xlink:title="env:&#10;Output result">
<polygon fill="none" stroke="red" stroke-width="2" points="959.58,-50.3944 1049.58,-35.5383 1139.58,-50.3944 1139.5,-74.4321 959.664,-74.4321 959.58,-50.3944"/>
<text text-anchor="start" x="1010.58" y="-54.3383" font-family="Times,serif" font-weight="bold" font-size="14.00">env:</text>
<text text-anchor="start" x="1035.58" y="-54.3383" font-family="Times,serif" font-size="14.00"> Keystore</text>
</a>
</g>
</g>
<!-- Calculate sec&#45;&gt;Keystore -->
<g id="edge9" class="edge"><title>Calculate sec&#45;&gt;Keystore</title>
<g id="a_edge9"><a xlink:title="Calculate sec:ssec ==&gt; Keystore:data">
<path fill="none" stroke="red" stroke-width="2" d="M1134.4,-312.943C1134.4,-312.943 1134.4,-84.6927 1134.4,-84.6927"/>
<polygon fill="red" stroke="red" stroke-width="2" points="1134.4,-74.6927 1138.9,-84.6926 1134.9,-79.6927 1134.9,-84.6927 1134.4,-84.6927 1133.9,-84.6927 1133.9,-79.6927 1129.9,-84.6927 1134.4,-74.6927 1134.4,-74.6927"/>
</a>
</g>
<text text-anchor="middle" x="1142.9" y="-77.0927" font-family="Sans-Serif" font-size="7.00">data</text>
<text text-anchor="middle" x="1125.9" y="-307.343" font-family="Sans-Serif" font-size="7.00">ssec</text>
</g>
<!-- Network -->
<g id="node10" class="node"><title>Network</title>
<g id="a_node10"><a xlink:title="env:&#10;Output result">
<polygon fill="none" stroke="black" stroke-width="2" points="1375.14,-983.845 1465.14,-968.989 1555.14,-983.845 1555.06,-1007.88 1375.22,-1007.88 1375.14,-983.845"/>
<text text-anchor="start" x="1426.64" y="-987.789" font-family="Times,serif" font-weight="bold" font-size="14.00">env:</text>
<text text-anchor="start" x="1451.64" y="-987.789" font-family="Times,serif" font-size="14.00"> Network</text>
</a>
</g>
</g>
<!-- Serialize pub&#45;&gt;Network -->
<g id="edge7" class="edge"><title>Serialize pub&#45;&gt;Network</title>
<g id="a_edge7"><a xlink:title="Serialize pub:data ==&gt; Network:data">
<path fill="none" stroke="black" stroke-width="2" d="M1469.42,-920.491C1469.42,-920.491 1469.42,-959.536 1469.42,-959.536"/>
<polygon fill="black" stroke="black" stroke-width="2" points="1469.42,-969.536 1464.92,-959.536 1468.92,-964.536 1468.92,-959.536 1469.42,-959.536 1469.92,-959.536 1469.92,-964.536 1473.92,-959.536 1469.42,-969.536 1469.42,-969.536"/>
</a>
</g>
<text text-anchor="middle" x="1460.92" y="-963.936" font-family="Sans-Serif" font-size="7.00">data</text>
<text text-anchor="middle" x="1460.92" y="-922.891" font-family="Sans-Serif" font-size="7.00">data</text>
</g>
<!-- Unserialize pub -->
<g id="node9" class="node"><title>Unserialize pub</title>
<g id="a_node9"><a xlink:title="xform:&#10;Unserialize pub value after receiving">
<polygon fill="none" stroke="black" stroke-width="2" points="1279.28,-988.265 1099.28,-988.265 1099.28,-945.265 1279.28,-945.265 1279.28,-988.265"/>
<text text-anchor="start" x="1123.78" y="-964.065" font-family="Times,serif" font-weight="bold" font-size="14.00">xform:</text>
<text text-anchor="start" x="1164.78" y="-964.065" font-family="Times,serif" font-size="14.00"> Unserialize pub</text>
</a>
</g>
</g>
<!-- Unserialize pub&#45;&gt;Calculate sec -->
<g id="edge4" class="edge"><title>Unserialize pub&#45;&gt;Calculate sec</title>
<g id="a_edge4"><a xlink:title="Unserialize pub:data ==&gt; Calculate sec:pub">
<path fill="none" stroke="black" stroke-width="2" d="M1164.25,-945.009C1164.25,-945.009 1164.25,-366.397 1164.25,-366.397"/>
<polygon fill="black" stroke="black" stroke-width="2" points="1164.25,-356.397 1168.75,-366.397 1164.75,-361.397 1164.75,-366.397 1164.25,-366.397 1163.75,-366.397 1163.75,-361.397 1159.75,-366.397 1164.25,-356.397 1164.25,-356.397"/>
</a>
</g>
<text text-anchor="middle" x="1157.25" y="-358.797" font-family="Sans-Serif" font-size="7.00">pub</text>
<text text-anchor="middle" x="1155.75" y="-939.409" font-family="Sans-Serif" font-size="7.00">data</text>
</g>
<!-- Network&#45;&gt;Unserialize pub -->
<g id="edge11" class="edge"><title>Network&#45;&gt;Unserialize pub</title>
<g id="a_edge11"><a xlink:title="Network:remote_pub ==&gt; Unserialize pub:data">
<path fill="none" stroke="black" stroke-width="2" d="M1410.31,-978C1410.31,-978 1289.3,-978 1289.3,-978"/>
<polygon fill="black" stroke="black" stroke-width="2" points="1279.3,-978 1289.3,-973.5 1284.3,-977.5 1289.3,-977.5 1289.3,-978 1289.3,-978.5 1284.3,-978.5 1289.3,-982.5 1279.3,-978 1279.3,-978"/>
</a>
</g>
<text text-anchor="middle" x="1287.8" y="-980.4" font-family="Sans-Serif" font-size="7.00">data</text>
<text text-anchor="middle" x="1388.31" y="-980.4" font-family="Sans-Serif" font-size="7.00">remote_pub</text>
</g>
<!-- Sec length -->
<g id="node11" class="node"><title>Sec length</title>
<g id="a_node11"><a xlink:title="const:&#10;Length of secret key for D&#45;H">
<polygon fill="none" stroke="blue" stroke-width="2" points="2078.71,-267.934 1898.71,-267.934 1898.71,-224.934 2078.71,-224.934 2078.71,-267.934"/>
<text text-anchor="start" x="1940.71" y="-243.734" font-family="Times,serif" font-weight="bold" font-size="14.00">const:</text>
<text text-anchor="start" x="1975.71" y="-243.734" font-family="Times,serif" font-size="14.00"> Sec length</text>
</a>
</g>
</g>
<!-- Trigger -->
<g id="node12" class="node"><title>Trigger</title>
<g id="a_node12"><a xlink:title="xform:&#10;Trigger D&#45;H key agreement">
<polygon fill="none" stroke="blue" stroke-width="2" points="1934.99,-201.828 1754.99,-201.828 1754.99,-158.828 1934.99,-158.828 1934.99,-201.828"/>
<text text-anchor="start" x="1801.99" y="-177.628" font-family="Times,serif" font-weight="bold" font-size="14.00">xform:</text>
<text text-anchor="start" x="1842.99" y="-177.628" font-family="Times,serif" font-size="14.00"> Trigger</text>
</a>
</g>
</g>
<!-- Sec length&#45;&gt;Trigger -->
<g id="edge5" class="edge"><title>Sec length&#45;&gt;Trigger</title>
<g id="a_edge5"><a xlink:title="Sec length:const ==&gt; Trigger:len">
<path fill="none" stroke="blue" stroke-width="2" d="M1916.85,-224.788C1916.85,-224.788 1916.85,-212.248 1916.85,-212.248"/>
<polygon fill="blue" stroke="blue" stroke-width="2" points="1916.85,-202.248 1921.35,-212.248 1917.35,-207.248 1917.35,-212.248 1916.85,-212.248 1916.35,-212.248 1916.35,-207.248 1912.35,-212.249 1916.85,-202.248 1916.85,-202.248"/>
</a>
</g>
<text text-anchor="middle" x="1910.85" y="-204.648" font-family="Sans-Serif" font-size="7.00">len</text>
<text text-anchor="middle" x="1906.35" y="-219.188" font-family="Sans-Serif" font-size="7.00">const</text>
</g>
<!-- Trigger&#45;&gt;Random number generator -->
<g id="edge3" class="edge"><title>Trigger&#45;&gt;Random number generator</title>
<g id="a_edge3"><a xlink:title="Trigger:data ==&gt; Random number generator:len">
<path fill="none" stroke="blue" stroke-width="2" d="M1826.85,-201.939C1826.85,-208.015 1826.85,-213 1826.85,-213 1826.85,-213 1647.72,-213 1647.72,-213"/>
<polygon fill="blue" stroke="blue" stroke-width="2" points="1637.72,-213 1647.72,-208.5 1642.72,-212.5 1647.72,-212.5 1647.72,-213 1647.72,-213.5 1642.72,-213.5 1647.72,-217.5 1637.72,-213 1637.72,-213"/>
</a>
</g>
<text text-anchor="middle" x="1643.72" y="-215.4" font-family="Sans-Serif" font-size="7.00">len</text>
<text text-anchor="middle" x="1818.35" y="-204.339" font-family="Sans-Serif" font-size="7.00">data</text>
</g>
<!-- Modulus -->
<g id="node13" class="node"><title>Modulus</title>
<g id="a_node13"><a xlink:title="const:&#10;Modulus for D&#45;H operations">
<polygon fill="none" stroke="blue" stroke-width="2" points="719.682,-939.166 539.682,-939.166 539.682,-896.166 719.682,-896.166 719.682,-939.166"/>
<text text-anchor="start" x="585.682" y="-914.966" font-family="Times,serif" font-weight="bold" font-size="14.00">const:</text>
<text text-anchor="start" x="620.682" y="-914.966" font-family="Times,serif" font-size="14.00"> Modulus</text>
</a>
</g>
</g>
<!-- Branch modulus -->
<g id="node14" class="node"><title>Branch modulus</title>
<g id="a_node14"><a xlink:title="branch:&#10;Branch modulus">
<polygon fill="none" stroke="blue" stroke-width="2" points="602.65,-873.98 422.65,-873.98 422.65,-830.98 602.65,-830.98 602.65,-873.98"/>
<text text-anchor="start" x="442.65" y="-849.78" font-family="Times,serif" font-weight="bold" font-size="14.00">branch:</text>
<text text-anchor="start" x="488.65" y="-849.78" font-family="Times,serif" font-size="14.00"> Branch modulus</text>
</a>
</g>
</g>
<!-- Modulus&#45;&gt;Branch modulus -->
<g id="edge6" class="edge"><title>Modulus&#45;&gt;Branch modulus</title>
<g id="a_edge6"><a xlink:title="Modulus:const ==&gt; Branch modulus:data">
<path fill="none" stroke="blue" stroke-width="2" d="M571.166,-895.96C571.166,-895.96 571.166,-884.313 571.166,-884.313"/>
<polygon fill="blue" stroke="blue" stroke-width="2" points="571.166,-874.313 575.666,-884.313 571.666,-879.313 571.666,-884.313 571.166,-884.313 570.666,-884.313 570.666,-879.313 566.666,-884.313 571.166,-874.313 571.166,-874.313"/>
</a>
</g>
<text text-anchor="middle" x="562.666" y="-876.713" font-family="Sans-Serif" font-size="7.00">data</text>
<text text-anchor="middle" x="560.666" y="-890.36" font-family="Sans-Serif" font-size="7.00">const</text>
</g>
<!-- Branch modulus&#45;&gt;Calculate pub -->
<g id="edge12" class="edge"><title>Branch modulus&#45;&gt;Calculate pub</title>
<g id="a_edge12"><a xlink:title="Branch modulus:modulus#1 ==&gt; Calculate pub:modulus">
<path fill="none" stroke="blue" stroke-width="2" d="M602.751,-845C643.181,-845 681.946,-845 681.946,-845 681.946,-845 681.946,-640.001 681.946,-640.001"/>
<polygon fill="blue" stroke="blue" stroke-width="2" points="681.946,-630.001 686.446,-640.001 682.446,-635.001 682.446,-640.001 681.946,-640.001 681.446,-640.001 681.446,-635.001 677.446,-640.001 681.946,-630.001 681.946,-630.001"/>
</a>
</g>
<text text-anchor="middle" x="666.446" y="-632.401" font-family="Sans-Serif" font-size="7.00">modulus</text>
<text text-anchor="middle" x="623.751" y="-847.4" font-family="Sans-Serif" font-size="7.00">modulus#1</text>
</g>
<!-- Branch modulus&#45;&gt;Calculate sec -->
<g id="edge8" class="edge"><title>Branch modulus&#45;&gt;Calculate sec</title>
<g id="a_edge8"><a xlink:title="Branch modulus:modulus#1 ==&gt; Calculate sec:modulus">
<path fill="none" stroke="blue" stroke-width="2" d="M602.827,-859C777.887,-859 1146.74,-859 1146.74,-859 1146.74,-859 1146.74,-366.262 1146.74,-366.262"/>
<polygon fill="blue" stroke="blue" stroke-width="2" points="1146.74,-356.262 1151.24,-366.262 1147.24,-361.262 1147.24,-366.262 1146.74,-366.262 1146.24,-366.262 1146.24,-361.262 1142.24,-366.262 1146.74,-356.262 1146.74,-356.262"/>
</a>
</g>
<text text-anchor="middle" x="1131.24" y="-358.662" font-family="Sans-Serif" font-size="7.00">modulus</text>
<text text-anchor="middle" x="623.827" y="-861.4" font-family="Sans-Serif" font-size="7.00">modulus#1</text>
</g>
</g>
</svg>
