<?xml version="1.0" encoding="UTF-8" standalone="no"?>
<!DOCTYPE svg PUBLIC "-//W3C//DTD SVG 1.1//EN"
 "http://www.w3.org/Graphics/SVG/1.1/DTD/svg11.dtd">
<!-- Generated by graphviz version 2.38.0 (20140413.2041)
 -->
<!-- Title: sdg Pages: 1 -->
<svg width="1123pt" height="442pt"
 viewBox="0.00 0.00 1123.00 441.94" xmlns="http://www.w3.org/2000/svg" xmlns:xlink="http://www.w3.org/1999/xlink">
<g id="graph0" class="graph" transform="scale(0.685174 0.685174) rotate(0) translate(4 641)">
<title>sdg</title>
<polygon fill="white" stroke="none" points="-4,4 -4,-641 1635,-641 1635,4 -4,4"/>
<!-- Branch sec -->
<g id="node1" class="node"><title>Branch sec</title>
<g id="a_node1"><a xlink:title="branch:&#10;Branch secret of initiator">
<polygon fill="none" stroke="black" stroke-width="2" points="581.405,-247.198 401.405,-247.198 401.405,-204.198 581.405,-204.198 581.405,-247.198"/>
<text text-anchor="start" x="436.405" y="-222.998" font-family="Times,serif" font-weight="bold" font-size="14.00">branch:</text>
<text text-anchor="start" x="482.405" y="-222.998" font-family="Times,serif" font-size="14.00"> Branch sec</text>
</a>
</g>
</g>
<!-- Calculate sec -->
<g id="node8" class="node"><title>Calculate sec</title>
<g id="a_node8"><a xlink:title="dhsec:&#10;Calculate initiator secret value">
<polygon fill="none" stroke="black" stroke-width="2" points="916.787,-244.715 736.787,-244.715 736.787,-201.715 916.787,-201.715 916.787,-244.715"/>
<text text-anchor="start" x="770.287" y="-220.515" font-family="Times,serif" font-weight="bold" font-size="14.00">dhsec:</text>
<text text-anchor="start" x="807.287" y="-220.515" font-family="Times,serif" font-size="14.00"> Calculate sec</text>
</a>
</g>
</g>
<!-- Branch sec&#45;&gt;Calculate sec -->
<g id="edge1" class="edge"><title>Branch sec&#45;&gt;Calculate sec</title>
<g id="a_edge1"><a xlink:title="Branch sec:data#2 ==&gt; Calculate sec:psec">
<path fill="none" stroke="black" stroke-width="2" d="M581.722,-214C581.722,-214 726.599,-214 726.599,-214"/>
<polygon fill="black" stroke="black" stroke-width="2" points="736.599,-214 726.599,-218.5 731.599,-214.5 726.599,-214.5 726.599,-214 726.599,-213.5 731.599,-213.5 726.599,-209.5 736.599,-214 736.599,-214"/>
</a>
</g>
<text text-anchor="middle" x="727.599" y="-216.4" font-family="Sans-Serif" font-size="7.00">psec</text>
<text text-anchor="middle" x="595.722" y="-216.4" font-family="Sans-Serif" font-size="7.00">data#2</text>
</g>
<!-- Calculate pub -->
<g id="node12" class="node"><title>Calculate pub</title>
<g id="a_node12"><a xlink:title="dhpub:&#10;Calculate initiator public value">
<polygon fill="none" stroke="black" stroke-width="2" points="885.387,-502.466 705.387,-502.466 705.387,-459.466 885.387,-459.466 885.387,-502.466"/>
<text text-anchor="start" x="734.387" y="-478.266" font-family="Times,serif" font-weight="bold" font-size="14.00">dhpub:</text>
<text text-anchor="start" x="777.387" y="-478.266" font-family="Times,serif" font-size="14.00"> Calculate pub</text>
</a>
</g>
</g>
<!-- Branch sec&#45;&gt;Calculate pub -->
<g id="edge2" class="edge"><title>Branch sec&#45;&gt;Calculate pub</title>
<g id="a_edge2"><a xlink:title="Branch sec:data#1 ==&gt; Calculate pub:psec">
<path fill="none" stroke="black" stroke-width="2" d="M581.522,-234C645.869,-234 721.087,-234 721.087,-234 721.087,-234 721.087,-449.05 721.087,-449.05"/>
<polygon fill="black" stroke="black" stroke-width="2" points="721.087,-459.05 716.587,-449.05 720.587,-454.05 720.587,-449.05 721.087,-449.05 721.587,-449.05 721.587,-454.05 725.587,-449.05 721.087,-459.05 721.087,-459.05"/>
</a>
</g>
<text text-anchor="middle" x="712.087" y="-453.45" font-family="Sans-Serif" font-size="7.00">psec</text>
<text text-anchor="middle" x="595.522" y="-236.4" font-family="Sans-Serif" font-size="7.00">data#1</text>
</g>
<!-- Branch modulus -->
<g id="node2" class="node"><title>Branch modulus</title>
<g id="a_node2"><a xlink:title="branch:&#10;Branch modulus">
<polygon fill="none" stroke="black" stroke-width="2" points="1270.8,-363.185 1090.8,-363.185 1090.8,-320.185 1270.8,-320.185 1270.8,-363.185"/>
<text text-anchor="start" x="1110.8" y="-338.985" font-family="Times,serif" font-weight="bold" font-size="14.00">branch:</text>
<text text-anchor="start" x="1156.8" y="-338.985" font-family="Times,serif" font-size="14.00"> Branch modulus</text>
</a>
</g>
</g>
<!-- Branch modulus&#45;&gt;Calculate sec -->
<g id="edge3" class="edge"><title>Branch modulus&#45;&gt;Calculate sec</title>
<g id="a_edge3"><a xlink:title="Branch modulus:modulus#1 ==&gt; Calculate sec:modulus">
<path fill="none" stroke="black" stroke-width="2" d="M1090.76,-334C1008.99,-334 901.087,-334 901.087,-334 901.087,-334 901.087,-254.838 901.087,-254.838"/>
<polygon fill="black" stroke="black" stroke-width="2" points="901.087,-244.838 905.587,-254.838 901.587,-249.838 901.587,-254.838 901.087,-254.838 900.587,-254.838 900.587,-249.838 896.587,-254.838 901.087,-244.838 901.087,-244.838"/>
</a>
</g>
<text text-anchor="middle" x="885.587" y="-247.238" font-family="Sans-Serif" font-size="7.00">modulus</text>
<text text-anchor="middle" x="1069.76" y="-336.4" font-family="Sans-Serif" font-size="7.00">modulus#1</text>
</g>
<!-- Branch modulus&#45;&gt;Calculate pub -->
<g id="edge4" class="edge"><title>Branch modulus&#45;&gt;Calculate pub</title>
<g id="a_edge4"><a xlink:title="Branch modulus:modulus#1 ==&gt; Calculate pub:modulus">
<path fill="none" stroke="black" stroke-width="2" d="M1090.79,-348C974.365,-348 786.321,-348 786.321,-348 786.321,-348 786.321,-449.307 786.321,-449.307"/>
<polygon fill="black" stroke="black" stroke-width="2" points="786.321,-459.307 781.821,-449.307 785.821,-454.307 785.821,-449.307 786.321,-449.307 786.821,-449.307 786.821,-454.307 790.821,-449.307 786.321,-459.307 786.321,-459.307"/>
</a>
</g>
<text text-anchor="middle" x="770.821" y="-453.707" font-family="Sans-Serif" font-size="7.00">modulus</text>
<text text-anchor="middle" x="1069.79" y="-350.4" font-family="Sans-Serif" font-size="7.00">modulus#1</text>
</g>
<!-- Random number generator -->
<g id="node3" class="node"><title>Random number generator</title>
<g id="a_node3"><a xlink:title="rng:&#10;Genderate x for g^x in D&#45;H">
<polygon fill="none" stroke="black" stroke-width="2" points="192.296,-216.642 0.29575,-216.642 0.29575,-173.642 192.296,-173.642 192.296,-216.642"/>
<text text-anchor="start" x="8.29575" y="-192.442" font-family="Times,serif" font-weight="bold" font-size="14.00">rng:</text>
<text text-anchor="start" x="33.2958" y="-192.442" font-family="Times,serif" font-size="14.00"> Random number generator</text>
</a>
</g>
</g>
<!-- Random number generator&#45;&gt;Branch sec -->
<g id="edge5" class="edge"><title>Random number generator&#45;&gt;Branch sec</title>
<g id="a_edge5"><a xlink:title="Random number generator:data ==&gt; Branch sec:data">
<path fill="none" stroke="black" stroke-width="2" d="M192.445,-210C192.445,-210 391.275,-210 391.275,-210"/>
<polygon fill="black" stroke="black" stroke-width="2" points="401.275,-210 391.275,-214.5 396.275,-210.5 391.275,-210.5 391.275,-210 391.275,-209.5 396.275,-209.5 391.275,-205.5 401.275,-210 401.275,-210"/>
</a>
</g>
<text text-anchor="middle" x="392.775" y="-212.4" font-family="Sans-Serif" font-size="7.00">data</text>
<text text-anchor="middle" x="200.945" y="-212.4" font-family="Sans-Serif" font-size="7.00">data</text>
</g>
<!-- Network -->
<g id="node4" class="node"><title>Network</title>
<g id="a_node4"><a xlink:title="env:&#10;Output result">
<polygon fill="none" stroke="black" stroke-width="2" points="200.727,-520.492 290.727,-505.635 380.727,-520.492 380.643,-544.529 200.811,-544.529 200.727,-520.492"/>
<text text-anchor="start" x="252.227" y="-524.435" font-family="Times,serif" font-weight="bold" font-size="14.00">env:</text>
<text text-anchor="start" x="277.227" y="-524.435" font-family="Times,serif" font-size="14.00"> Network</text>
</a>
</g>
</g>
<!-- Unserialize pub -->
<g id="node5" class="node"><title>Unserialize pub</title>
<g id="a_node5"><a xlink:title="xform:&#10;Unserialize pub value after receiving">
<polygon fill="none" stroke="black" stroke-width="2" points="596.626,-462.251 416.626,-462.251 416.626,-419.251 596.626,-419.251 596.626,-462.251"/>
<text text-anchor="start" x="441.126" y="-438.051" font-family="Times,serif" font-weight="bold" font-size="14.00">xform:</text>
<text text-anchor="start" x="482.126" y="-438.051" font-family="Times,serif" font-size="14.00"> Unserialize pub</text>
</a>
</g>
</g>
<!-- Network&#45;&gt;Unserialize pub -->
<g id="edge6" class="edge"><title>Network&#45;&gt;Unserialize pub</title>
<g id="a_edge6"><a xlink:title="Network:remote_pub ==&gt; Unserialize pub:data">
<path fill="none" stroke="black" stroke-width="2" d="M341.728,-514C387.153,-514 446.485,-514 446.485,-514 446.485,-514 446.485,-472.332 446.485,-472.332"/>
<polygon fill="black" stroke="black" stroke-width="2" points="446.485,-462.332 450.985,-472.332 446.985,-467.332 446.985,-472.332 446.485,-472.332 445.985,-472.332 445.985,-467.332 441.985,-472.332 446.485,-462.332 446.485,-462.332"/>
</a>
</g>
<text text-anchor="middle" x="437.985" y="-464.732" font-family="Sans-Serif" font-size="7.00">data</text>
<text text-anchor="middle" x="363.728" y="-516.4" font-family="Sans-Serif" font-size="7.00">remote_pub</text>
</g>
<!-- Unserialize pub&#45;&gt;Calculate sec -->
<g id="edge7" class="edge"><title>Unserialize pub&#45;&gt;Calculate sec</title>
<g id="a_edge7"><a xlink:title="Unserialize pub:data ==&gt; Calculate sec:pub">
<path fill="none" stroke="black" stroke-width="2" d="M589.015,-419.175C589.015,-364.351 589.015,-224 589.015,-224 589.015,-224 726.557,-224 726.557,-224"/>
<polygon fill="black" stroke="black" stroke-width="2" points="736.557,-224 726.557,-228.5 731.557,-224.5 726.557,-224.5 726.557,-224 726.557,-223.5 731.557,-223.5 726.557,-219.5 736.557,-224 736.557,-224"/>
</a>
</g>
<text text-anchor="middle" x="729.557" y="-226.4" font-family="Sans-Serif" font-size="7.00">pub</text>
<text text-anchor="middle" x="580.515" y="-413.575" font-family="Sans-Serif" font-size="7.00">data</text>
</g>
<!-- Trigger -->
<g id="node6" class="node"><title>Trigger</title>
<g id="a_node6"><a xlink:title="xform:&#10;Trigger D&#45;H key agreement">
<polygon fill="none" stroke="black" stroke-width="2" points="292.764,-129.538 112.764,-129.538 112.764,-86.538 292.764,-86.538 292.764,-129.538"/>
<text text-anchor="start" x="159.764" y="-105.338" font-family="Times,serif" font-weight="bold" font-size="14.00">xform:</text>
<text text-anchor="start" x="200.764" y="-105.338" font-family="Times,serif" font-size="14.00"> Trigger</text>
</a>
</g>
</g>
<!-- Trigger&#45;&gt;Random number generator -->
<g id="edge8" class="edge"><title>Trigger&#45;&gt;Random number generator</title>
<g id="a_edge8"><a xlink:title="Trigger:data ==&gt; Random number generator:len">
<path fill="none" stroke="black" stroke-width="2" d="M152.53,-129.569C152.53,-129.569 152.53,-163.556 152.53,-163.556"/>
<polygon fill="black" stroke="black" stroke-width="2" points="152.53,-173.556 148.03,-163.556 152.03,-168.556 152.03,-163.556 152.53,-163.556 153.03,-163.556 153.03,-168.556 157.03,-163.556 152.53,-173.556 152.53,-173.556"/>
</a>
</g>
<text text-anchor="middle" x="146.53" y="-167.956" font-family="Sans-Serif" font-size="7.00">len</text>
<text text-anchor="middle" x="144.03" y="-131.969" font-family="Sans-Serif" font-size="7.00">data</text>
</g>
<!-- Keystore -->
<g id="node7" class="node"><title>Keystore</title>
<g id="a_node7"><a xlink:title="env:&#10;Output result">
<polygon fill="none" stroke="red" stroke-width="2" points="704.581,-131.744 794.581,-116.888 884.581,-131.744 884.497,-155.782 704.665,-155.782 704.581,-131.744"/>
<text text-anchor="start" x="755.581" y="-135.688" font-family="Times,serif" font-weight="bold" font-size="14.00">env:</text>
<text text-anchor="start" x="780.581" y="-135.688" font-family="Times,serif" font-size="14.00"> Keystore</text>
</a>
</g>
</g>
<!-- Calculate sec&#45;&gt;Keystore -->
<g id="edge9" class="edge"><title>Calculate sec&#45;&gt;Keystore</title>
<g id="a_edge9"><a xlink:title="Calculate sec:ssec ==&gt; Keystore:data">
<path fill="none" stroke="black" stroke-width="2" d="M810.684,-201.37C810.684,-201.37 810.684,-165.887 810.684,-165.887"/>
<polygon fill="black" stroke="black" stroke-width="2" points="810.684,-155.887 815.184,-165.887 811.184,-160.887 811.184,-165.887 810.684,-165.887 810.184,-165.887 810.184,-160.887 806.184,-165.887 810.684,-155.887 810.684,-155.887"/>
</a>
</g>
<text text-anchor="middle" x="802.184" y="-158.287" font-family="Sans-Serif" font-size="7.00">data</text>
<text text-anchor="middle" x="802.184" y="-195.77" font-family="Sans-Serif" font-size="7.00">ssec</text>
</g>
<!-- Serialize pub -->
<g id="node9" class="node"><title>Serialize pub</title>
<g id="a_node9"><a xlink:title="xform:&#10;Serialize pub value before sending">
<polygon fill="none" stroke="black" stroke-width="2" points="506.201,-637.266 326.201,-637.266 326.201,-594.266 506.201,-594.266 506.201,-637.266"/>
<text text-anchor="start" x="357.701" y="-613.066" font-family="Times,serif" font-weight="bold" font-size="14.00">xform:</text>
<text text-anchor="start" x="398.701" y="-613.066" font-family="Times,serif" font-size="14.00"> Serialize pub</text>
</a>
</g>
</g>
<!-- Serialize pub&#45;&gt;Network -->
<g id="edge10" class="edge"><title>Serialize pub&#45;&gt;Network</title>
<g id="a_edge10"><a xlink:title="Serialize pub:data ==&gt; Network:data">
<path fill="none" stroke="black" stroke-width="2" d="M353.464,-593.857C353.464,-593.857 353.464,-554.639 353.464,-554.639"/>
<polygon fill="black" stroke="black" stroke-width="2" points="353.464,-544.639 357.964,-554.639 353.964,-549.639 353.964,-554.639 353.464,-554.639 352.964,-554.639 352.964,-549.639 348.964,-554.639 353.464,-544.639 353.464,-544.639"/>
</a>
</g>
<text text-anchor="middle" x="344.964" y="-547.039" font-family="Sans-Serif" font-size="7.00">data</text>
<text text-anchor="middle" x="344.964" y="-588.257" font-family="Sans-Serif" font-size="7.00">data</text>
</g>
<!-- Generator -->
<g id="node10" class="node"><title>Generator</title>
<g id="a_node10"><a xlink:title="const:&#10;Generator for D&#45;H operations">
<polygon fill="none" stroke="black" stroke-width="2" points="1630.64,-313.555 1450.64,-313.555 1450.64,-270.555 1630.64,-270.555 1630.64,-313.555"/>
<text text-anchor="start" x="1494.14" y="-289.355" font-family="Times,serif" font-weight="bold" font-size="14.00">const:</text>
<text text-anchor="start" x="1529.14" y="-289.355" font-family="Times,serif" font-size="14.00"> Generator</text>
</a>
</g>
</g>
<!-- Branch generator -->
<g id="node13" class="node"><title>Branch generator</title>
<g id="a_node13"><a xlink:title="branch:&#10;Branch generator">
<polygon fill="none" stroke="black" stroke-width="2" points="1258.9,-455.499 1078.9,-455.499 1078.9,-412.499 1258.9,-412.499 1258.9,-455.499"/>
<text text-anchor="start" x="1096.9" y="-431.299" font-family="Times,serif" font-weight="bold" font-size="14.00">branch:</text>
<text text-anchor="start" x="1142.9" y="-431.299" font-family="Times,serif" font-size="14.00"> Branch generator</text>
</a>
</g>
</g>
<!-- Generator&#45;&gt;Branch generator -->
<g id="edge11" class="edge"><title>Generator&#45;&gt;Branch generator</title>
<g id="a_edge11"><a xlink:title="Generator:const ==&gt; Branch generator:data">
<path fill="none" stroke="black" stroke-width="2" d="M1531.19,-313.769C1531.19,-353.305 1531.19,-433 1531.19,-433 1531.19,-433 1268.92,-433 1268.92,-433"/>
<polygon fill="black" stroke="black" stroke-width="2" points="1258.92,-433 1268.92,-428.5 1263.92,-432.5 1268.92,-432.5 1268.92,-433 1268.92,-433.5 1263.92,-433.5 1268.92,-437.5 1258.92,-433 1258.92,-433"/>
</a>
</g>
<text text-anchor="middle" x="1267.42" y="-435.4" font-family="Sans-Serif" font-size="7.00">data</text>
<text text-anchor="middle" x="1520.69" y="-316.169" font-family="Sans-Serif" font-size="7.00">const</text>
</g>
<!-- Sec length -->
<g id="node11" class="node"><title>Sec length</title>
<g id="a_node11"><a xlink:title="const:&#10;Length of secret key for D&#45;H">
<polygon fill="none" stroke="black" stroke-width="2" points="206.817,-42.6401 26.8167,-42.6401 26.8167,0.359852 206.817,0.359852 206.817,-42.6401"/>
<text text-anchor="start" x="68.8167" y="-18.4401" font-family="Times,serif" font-weight="bold" font-size="14.00">const:</text>
<text text-anchor="start" x="103.817" y="-18.4401" font-family="Times,serif" font-size="14.00"> Sec length</text>
</a>
</g>
</g>
<!-- Sec length&#45;&gt;Trigger -->
<g id="edge12" class="edge"><title>Sec length&#45;&gt;Trigger</title>
<g id="a_edge12"><a xlink:title="Sec length:const ==&gt; Trigger:len">
<path fill="none" stroke="black" stroke-width="2" d="M159.79,-43.0681C159.79,-43.0681 159.79,-76.418 159.79,-76.418"/>
<polygon fill="black" stroke="black" stroke-width="2" points="159.79,-86.418 155.29,-76.418 159.29,-81.418 159.29,-76.418 159.79,-76.418 160.29,-76.418 160.29,-81.418 164.29,-76.4181 159.79,-86.418 159.79,-86.418"/>
</a>
</g>
<text text-anchor="middle" x="153.79" y="-80.818" font-family="Sans-Serif" font-size="7.00">len</text>
<text text-anchor="middle" x="149.29" y="-45.4681" font-family="Sans-Serif" font-size="7.00">const</text>
</g>
<!-- Calculate pub&#45;&gt;Serialize pub -->
<g id="edge13" class="edge"><title>Calculate pub&#45;&gt;Serialize pub</title>
<g id="a_edge13"><a xlink:title="Calculate pub:pub ==&gt; Serialize pub:data">
<path fill="none" stroke="black" stroke-width="2" d="M705.241,-482C610.896,-482 476.343,-482 476.343,-482 476.343,-482 476.343,-583.976 476.343,-583.976"/>
<polygon fill="black" stroke="black" stroke-width="2" points="476.343,-593.976 471.843,-583.976 475.843,-588.976 475.843,-583.976 476.343,-583.976 476.843,-583.976 476.843,-588.976 480.843,-583.976 476.343,-593.976 476.343,-593.976"/>
</a>
</g>
<text text-anchor="middle" x="467.843" y="-588.376" font-family="Sans-Serif" font-size="7.00">data</text>
<text text-anchor="middle" x="698.241" y="-484.4" font-family="Sans-Serif" font-size="7.00">pub</text>
</g>
<!-- Branch generator&#45;&gt;Calculate sec -->
<g id="edge14" class="edge"><title>Branch generator&#45;&gt;Calculate sec</title>
<g id="a_edge14"><a xlink:title="Branch generator:generator#2 ==&gt; Calculate sec:generator">
<path fill="none" stroke="black" stroke-width="2" d="M1084.85,-412.213C1084.85,-358.303 1084.85,-223 1084.85,-223 1084.85,-223 927.045,-223 927.045,-223"/>
<polygon fill="black" stroke="black" stroke-width="2" points="917.045,-223 927.045,-218.5 922.045,-222.5 927.045,-222.5 927.045,-223 927.045,-223.5 922.045,-223.5 927.045,-227.5 917.045,-223 917.045,-223"/>
</a>
</g>
<text text-anchor="middle" x="935.545" y="-225.4" font-family="Sans-Serif" font-size="7.00">generator</text>
<text text-anchor="middle" x="1061.35" y="-406.613" font-family="Sans-Serif" font-size="7.00">generator#2</text>
</g>
<!-- Branch generator&#45;&gt;Calculate pub -->
<g id="edge15" class="edge"><title>Branch generator&#45;&gt;Calculate pub</title>
<g id="a_edge15"><a xlink:title="Branch generator:generator#1 ==&gt; Calculate pub:generator">
<path fill="none" stroke="black" stroke-width="2" d="M1078.77,-437C980.14,-437 835.854,-437 835.854,-437 835.854,-437 835.854,-449.241 835.854,-449.241"/>
<polygon fill="black" stroke="black" stroke-width="2" points="835.854,-459.241 831.354,-449.241 835.354,-454.241 835.354,-449.241 835.854,-449.241 836.354,-449.241 836.354,-454.241 840.354,-449.241 835.854,-459.241 835.854,-459.241"/>
</a>
</g>
<text text-anchor="middle" x="817.354" y="-453.641" font-family="Sans-Serif" font-size="7.00">generator</text>
<text text-anchor="middle" x="1055.27" y="-439.4" font-family="Sans-Serif" font-size="7.00">generator#1</text>
</g>
<!-- Modulus -->
<g id="node14" class="node"><title>Modulus</title>
<g id="a_node14"><a xlink:title="const:&#10;Modulus for D&#45;H operations">
<polygon fill="none" stroke="black" stroke-width="2" points="1611.75,-566.511 1431.75,-566.511 1431.75,-523.511 1611.75,-523.511 1611.75,-566.511"/>
<text text-anchor="start" x="1477.75" y="-542.311" font-family="Times,serif" font-weight="bold" font-size="14.00">const:</text>
<text text-anchor="start" x="1512.75" y="-542.311" font-family="Times,serif" font-size="14.00"> Modulus</text>
</a>
</g>
</g>
<!-- Modulus&#45;&gt;Branch modulus -->
<g id="edge16" class="edge"><title>Modulus&#45;&gt;Branch modulus</title>
<g id="a_edge16"><a xlink:title="Modulus:const ==&gt; Branch modulus:data">
<path fill="none" stroke="black" stroke-width="2" d="M1431.54,-536C1357.51,-536 1264.85,-536 1264.85,-536 1264.85,-536 1264.85,-373.223 1264.85,-373.223"/>
<polygon fill="black" stroke="black" stroke-width="2" points="1264.85,-363.223 1269.35,-373.223 1265.35,-368.223 1265.35,-373.223 1264.85,-373.223 1264.35,-373.223 1264.35,-368.223 1260.35,-373.223 1264.85,-363.223 1264.85,-363.223"/>
</a>
</g>
<text text-anchor="middle" x="1256.35" y="-365.623" font-family="Sans-Serif" font-size="7.00">data</text>
<text text-anchor="middle" x="1421.04" y="-538.4" font-family="Sans-Serif" font-size="7.00">const</text>
</g>
</g>
</svg>
